<svg width="55" height="49" viewBox="0 0 55 49" fill="none" xmlns="http://www.w3.org/2000/svg">
<path d="M23.7503 4.25109C25.7408 1.99442 29.2592 1.99442 31.2497 4.25109L43.988 18.6925C46.8359 21.9212 44.5434 27 40.2382 27H14.7618C10.4566 27 8.16415 21.9212 11.012 18.6925L23.7503 4.25109Z" fill="#C29E00"/>
<path d="M42 31C46.9706 31 51 35.0294 51 40C51 44.9706 46.9706 49 42 49H32V45C32 42.7909 30.2091 41 28 41C25.7909 41 24 42.7909 24 45V49H13C8.02944 49 4 44.9706 4 40C4 35.0294 8.02944 31 13 31H42Z" fill="#C29E00"/>
</svg>
